<?xml version="1.0" encoding="UTF-8"?>
<svg width="108mm" height="108mm" version="1.1" viewBox="0 0 108 108" xml:space="preserve" xmlns="http://www.w3.org/2000/svg"><path d="m0 0h108v108h-108z" fill="#495e2e"/><g fill="#fff"><path d="m54.002071 27.210505a20.479481 20.479481 0 0 0-20.480184 20.48012 20.479481 20.479481 0 0 0 20.480184 20.476042 20.479481 20.479481 0 0 0 20.475963-20.476042 20.479481 20.479481 0 0 0-20.475963-20.48012zm0 5.260532a15.217669 15.217669 0 0 1 15.215431 15.219588 15.217669 15.217669 0 0 1-15.215431 15.21551 15.217669 15.217669 0 0 1-15.219636-15.21551 15.217669 15.217669 0 0 1 15.219636-15.219588z"/><path d="m33.521974 47.688785v13.335253a20.479481 20.479481 0 0 0 20.480177 20.475962h20.475962v-33.811215h-5.260531v28.550684h-15.215431a15.217669 15.217669 0 0 1-15.219636-15.041903 15.217669 15.217669 0 0 1 0-0.173528v-13.335253z"/><path d="m67.751072 26.5-13.751159 13.751079-13.751159-13.751079-3.719718 3.719733 13.751223 13.751159 3.719733 3.719733 17.470892-17.470892z"/><path d="m61.648971 50.89993c4.282377-0.0014 4.280298-6.425007-0.0021-6.423568-4.282379 0-4.282379 6.423568 0 6.423568"/><path d="m46.353574 50.89993c4.282378-0.0014 4.280299-6.425007-0.0021-6.423568-4.281739 0-4.281739 6.423568 0 6.423568"/><path d="m55.341035 64.102678-5.111714 1.252119a20.479481 20.479481 0 0 0 0 0.0041 20.479481 20.479481 0 0 0 9.425919 13.190672h10.591354v-2.3101a15.217669 15.217669 0 0 1-14.905559-12.136791z"/></g></svg>
