<svg id="a" class="aboutHeader" width="68.959999" height="68.959999" version="1.1" viewBox="0 0 68.96 68.959999" xmlns="http://www.w3.org/2000/svg" xmlnsSvg="http://www.w3.org/2000/svg" fill="white">
<path d="m34.479285 68.96c-19.01098 0-34.479285-15.466876-34.479285-34.480715s15.468305-34.479285 34.479285-34.479285c19.010981 0 34.480715 15.468305 34.480715 34.479285h-8.703065c0-14.212148-11.562644-25.7762201-25.776221-25.7762201s-25.7776491 11.5640721-25.7776491 25.7762201 11.5626431 25.77765 25.7762201 25.77765z" stroke-width=".142907"/>
 <path d="m60.339821 60.339821v-15.035295h8.620179v23.655474h-23.655474v-8.620179z" fill="#EA7C68" stroke-width=".142907"/>
 <path d="m49.614615 34.480714a5.4119057 5.4119057 0 0 1-5.411905 5.411906 5.4119057 5.4119057 0 0 1-5.411906-5.411906 5.4119057 5.4119057 0 0 1 5.411906-5.411906 5.4119057 5.4119057 0 0 1 5.411905 5.411906z" stroke-width=".142907"/>
</svg>
