<?xml version="1.0" encoding="UTF-8"?>
<svg version="1.1" viewBox="0 0 21.273121 5.2456751" xmlns="http://www.w3.org/2000/svg">
 <path fill="currentColor" d="m0.37724 0-0.37724 0.377238 2.34818 2.348177c-0.21167 0.03087-0.42023 0.07728-0.62529 0.13901-0.20505 0.06174-0.4067 0.143005-0.60513 0.244429-0.12789 0.06614-0.23031 0.162161-0.30747 0.287838-0.0772 0.125677-0.11576 0.263481-0.11576 0.413411v0.74104h3.47938l0.69453 0.694532 0.37672-0.377238zm7.98556 0-0.37672 0.377238 1.63245 1.632458h-0.73225v0.849561c0 0.116772 0.0419 0.216568 0.12506 0.299723 0.0832 0.08316 0.18295 0.124541 0.29972 0.124541h0.10594l0.23926 0.950329c0.0248 0.09554 0.074 0.173423 0.14831 0.233578 0.0743 0.06015 0.16085 0.08992 0.25993 0.08992h1.46503c0.0991 0 0.18614-0.02976 0.26045-0.08992 0.0549-0.04444 0.0962-0.09851 0.12402-0.162264l0.94051 0.940511 0.37672-0.377238-1.16065-1.160653-0.34778-0.347782-0.0765-0.07648-0.42427-0.424264-0.42478-0.42478-0.42478-0.424781zm7.98659 5.17e-4 -0.37724 0.376721 1.27228 1.271757h-0.95137v0.433565h0.43305v1.082621l-0.1695 1.23145 0.55191 0.112138 0.18086-1.01906c0.18768 0.07219 0.37871 0.125131 0.57361 0.157614 0.1949 0.03249 0.39319 0.04806 0.59531 0.04806 0.1949 0 0.39216-0.01557 0.59067-0.04806 0.0545-0.0089 0.1086-0.01902 0.16226-0.03101l0.65371 0.653707 0.0749 0.248563 0.15141-0.0217 0.74879 0.748792 0.37672-0.377238-0.7922-0.7922-1.03766-1.037663-0.84181-0.841809-0.54725-0.547253zm-6.82594 0.310575c0 0.0333 9.9e-4 0.06634 3e-3 0.0987l1.48311 1.483114v-0.329179c0.30432-0.04954 0.55691-0.190722 0.75861-0.424264 0.2017-0.233543 0.30283-0.509905 0.30283-0.828373-0.35385 0-0.65457 0.123857-0.90227 0.371554-0.24769 0.247698-0.37156 0.548417-0.37156 0.90227 0-0.353852-0.12385-0.654572-0.37155-0.90227-0.2477-0.247697-0.54842-0.371554-0.90227-0.371554zm-6.71225 0.0067c-0.1808 0-0.34847 0.04179-0.50281 0.125574-0.15434 0.08378-0.28202 0.200435-0.38344 0.350366l0.39015 0.390157c0.0397-0.101426 0.10494-0.182696 0.19534-0.244429 0.0904-0.06173 0.19051-0.0925 0.30076-0.0925 0.14552 0 0.26999 0.05192 0.37362 0.155546 0.10363 0.103628 0.15554 0.2281 0.15554 0.37362 0 0.110243-0.0308 0.210358-0.0925 0.300757-0.0617 0.0904-0.14352 0.15565-0.24494 0.195337l0.39015 0.390157c0.14994-0.101424 0.26711-0.229616 0.35089-0.383956 0.0838-0.15434 0.12557-0.321496 0.12557-0.502295 0-0.291041-0.10384-0.5405-0.31109-0.747758-0.20726-0.207256-0.4562-0.310575-0.74724-0.310575zm16.66513 0.03256-0.74569 1.276925 0.40359 0.403593 0.0563-0.09663c0.16217-0.278002 0.32462-0.556056 0.48679-0.834058v1.474846l0.51315 0.513147v-1.655197l0.67179 0.433049 0.41083-0.433049-0.64957-0.758093 0.43305-0.324528zm-8.34988 1.65933 0.42478 0.424781h0.73226v0.42478h-0.30748l0.41186 0.411861h5.2e-4c0.0729-0.0179 0.13773-0.05505 0.19482-0.112138 0.0831-0.08316 0.12454-0.182951 0.12454-0.299723v-0.849547zm6.14485 0.186552h0.52038l0.97358 0.974101c-0.0546 0.0051-0.10906 0.0086-0.16381 0.01085-0.1975 0.0078-0.39567-0.0016-0.59118-0.03101-0.16287-0.02406-0.32352-0.06565-0.47801-0.122473-0.0872-0.03278-0.17384-0.06617-0.26096-0.09922zm-7.96024 0.238229h0.73225l0.42478 0.42478h-1.15703zm-5.26945 0.47594 0.88625 0.88625c-4e-3 -0.14552-0.0439-0.281016-0.11885-0.406693-0.075-0.125679-0.1765-0.219387-0.30438-0.28112-0.075-0.03969-0.15124-0.07507-0.22841-0.105937-0.0772-0.03087-0.15523-0.06163-0.23461-0.0925zm-1.23041 0.31781h0.0398l0.79375 0.79375h-2.42104v-0.211874c0-0.04851 0.0119-0.0926 0.0362-0.132291 0.0243-0.03969 0.0564-0.07045 0.0961-0.0925 0.23813-0.119061 0.47835-0.208151 0.72089-0.267684 0.24253-0.05953 0.48737-0.0894 0.73432-0.0894zm7.04143 0.05529h1.03973l0.67954 0.679545-0.0424 0.170015h-1.46503z"/>
</svg>
