<svg width="268.23mm" height="301.1mm" version="1.1" viewBox="0 0 268.23 301.1" xml:space="preserve" xmlns="http://www.w3.org/2000/svg"><path d="m199.656 133.435c1.0377 9.3912 1.0446 18.21 0.64974 26.805-13.978 1.8438-59.373-11.249-69.077-16.412l3.2487-29.415c23.792 14.956 43.977 14.871 65.179 19.022z" fill="#2d7f92"/><path d="m220.876 126.208-6.7888 12.062 10.138 6.0224 1.6202-14.016z" fill="#f6c6b0"/><path d="m221.836 158.496-1.424-20.233c-0.17985-11.217 16.195-12.22 16.946-1.0587l1.9926 17.597c-5.7177-0.35149-11.542 0.69452-17.515 3.6945z" fill="#282829"/><path d="m199.336 133.509c1.7014-0.20805 2.9825-0.568 5.8354-0.35994 2.7127-5.4426 6.6575-10.477 16.099-14.248 2.1928-0.0481 5.7159-0.67354 7.9205 2.2991 5.8412-0.58216 9.439 3.8477 10.91 6.0941 5.7193 1.2853 9.2 12.678 2.5256 17.118-2.9718 1.5305-5.313 0.3506-5.7934-3.1393-4.0321-0.14302-4.6538-1.8365-4.78-3.7551-5.9298 0.53705-7.648-6.0484-11.096-9.7079l-4.6117 9.1508c2.4069 0.9413 10.026 13.513 3.6747 16.135-5.281 1.0178-5.1649-2.8058-6.9421-4.3926-6.3786 4.4473-10.259 4.5476-13.217 4.6776z" fill="#f6c6b0"/><path d="m221.556 118.093-0.0137 4e-3 -0.0137 2e-3c-5.8933 1.3491-13.2 6.8427-16.693 14.52-1.8184 0.11372-3.3379-0.42283-5.5215 0.0996a0.5 0.5 0 0 0-0.36914 0.60156 0.5 0.5 0 0 0 0.60352 0.37109c1.9963-0.47763 3.4372 0.13678 5.6113-0.0703l0.29296-0.0273 0.11719-0.26953c3.2831-7.5101 10.601-12.964 16.166-14.244 1.5929-0.26251 3.2286 0.15397 4.4785 0.49805l4e-3 2e-3h4e-3c0.77078 0.19911 2.0468 1.1189 3.3027 2.4766s2.5292 3.1387 3.5 5.0156 1.6361 3.8518 1.7148 5.5742c0.0788 1.7224-0.38835 3.1562-1.6894 4.1738-0.98315 0.76897-1.9302 0.89365-2.9629 0.60742-1.0327-0.28622-2.1377-1.0342-3.207-2.0645-2.1386-2.0605-4.1231-5.2163-5.4277-7.7012a0.5 0.5 0 0 0-0.67382-0.21094 0.5 0.5 0 0 0-0.21094 0.67578c1.3356 2.5438 3.338 5.7592 5.6191 7.957 1.1406 1.0989 2.3548 1.9519 3.6348 2.3066 0.59704 0.16547 1.2102 0.18367 1.8184 0.0898 0.12958 0.84399 0.41509 1.5677 0.88672 2.0762 0.57646 0.62154 1.331 0.97979 2.0977 1.1562 0.49598 0.11416 0.9712 0.0605 1.4531 0.0469 0.37305 1.8691 1.1467 3.1458 2.2285 3.7539 1.154 0.64865 2.5263 0.56531 3.7891 0.0527 2.5255-1.0252 4.8223-3.7298 4.8867-6.6309 0.10111-4.5506-0.8717-7.4313-2.2969-9.2949s-3.274-2.6698-4.7656-3.1621a0.5 0.5 0 0 0-0.082 0.041c-0.80893-1.5632-1.7965-3.0255-3.1719-4.1035-1.9452-1.5247-4.4763-2.3569-7.4766-2.0293-0.94227-0.86091-1.8664-1.5537-2.7168-1.7734-1.2624-0.34747-3.049-0.8319-4.916-0.51953zm8.7539 3.3574c2.2634-0.0203 4.2158 0.55865 5.7383 1.752 1.7763 1.3922 3.0694 3.4346 3.8301 5.6621 0.76071 2.2275 0.98657 4.6366 0.66601 6.7168s-1.1834 3.8106-2.5312 4.7793c-0.21808 0.15673-0.71031 0.34821-1.291 0.43555-0.58071 0.0873-1.2535 0.084-1.873-0.0586-0.61957-0.14261-1.18-0.41944-1.5898-0.86133-0.3686-0.39742-0.57974-1.0025-0.6543-1.7773 0.35645-0.15098 0.72342-0.2285 1.0606-0.49219 1.5778-1.234 2.161-3.066 2.0723-5.0059s-0.80843-4.0243-1.8242-5.9883c-1.0017-1.9368-2.2995-3.741-3.6035-5.1621zm10.154 6.3555c1.1857 0.47309 2.4157 1.1179 3.4277 2.4414 1.2573 1.6441 2.1876 4.2663 2.0898 8.666-0.0525 2.3624-2.1259 4.8576-4.2617 5.7246-1.0679 0.43348-2.0977 0.46827-2.9238 4e-3 -0.74688-0.41982-1.3585-1.3751-1.7012-2.9375 0.58118-0.11202 1.124-0.26155 1.502-0.5332 1.6382-1.1774 2.5868-3.1744 2.9355-5.4375 0.34875-2.2631 0.10297-4.8139-0.70898-7.1914-0.0885-0.25926-0.25725-0.48172-0.35938-0.73633zm-28.566 6.9863a0.5 0.5 0 0 0-0.60547 0.36523 0.5 0.5 0 0 0 0.36328 0.60547c4.9851 1.2397 8.9421 5.1503 10.27 10.447 0.8004 3.194 0.17028 4.8576-0.57617 5.7715-0.73036 0.8942-1.5668 1.0762-1.6035 1.084-2.2122 0.27116-3.383-0.26452-4.2559-1.0977-0.87572-0.83591-1.4256-2.0417-2.1621-3.1133l-0.27929-0.4082-0.41211 0.27539c-3.4745 2.3313-7.6005 3.9231-12.594 4.2656a0.5 0.5 0 0 0-0.46485 0.53321 0.5 0.5 0 0 0 0.53321 0.46484c4.975-0.34131 9.1194-1.9375 12.641-4.2109 0.57819 0.91561 1.0992 2.0134 2.0469 2.918 1.0624 1.0141 2.6464 1.6714 5.0879 1.3672l0.0195-4e-3 0.0215-4e-3s1.2377-0.2627 2.1973-1.4375c0.95955-1.1748 1.6234-3.2487 0.77148-6.6484-1.4133-5.6399-5.6544-9.8449-10.998-11.174z" color="#000000" fill="#171a1c" stroke-linecap="round" style="-inkscape-stroke:none"/><path d="m221.886 174.666-28.782 113.1c15.167 18.815 56.743 16.757 75.123-0.22787l-23.52-114.56-4.7329-9.9173-19.119 4.1357z" fill="#f9dc7e"/><path d="m232.416 154.296c-5.0568-0.0617-10.201 2.436-13.138 8.523l1.9503 11.822c4.2753 6.8911 20.492 2.8993 23.928-1.5978l-2.1792-14.442c-2.748-2.6608-6.628-4.2572-10.561-4.3052zm3.1466 13.861c10.952 6e-3 10.272 6.2832-3.0019 7.8155-10.313 1.1905-14.954-5.862-1.5575-7.5138 1.6941-0.20888 3.2144-0.3025 4.5594-0.30179z" fill="#282829"/><path d="m219.336 163.386c-1.2373-6.1738 5.43-8.6525 9.99-9.6492 4.9612-1.0844 13.794-0.89293 13.646 5.2509-7.087-6.1001-19.995-1.9453-23.636 4.3983z" fill="#58585a"/><path d="m36.31 82.025 26.666 0.11916 70.569 11.515 12.153 0.76699-30.141 32.205z" fill="#135066"/><path d="m70.862 27.928c-13.839-5.5316-16.096 18.296-5.4652 24.883l-10.777 39.651 59.47 32.987 20.441-10.401 4.303-50.833c9.2348 0.68088 18.743 2.0579 28.297 1.3045 25.036-1.9741 32.668-38.168-4.5533-47.887l-45.912-14.183c-19.593-5.7172-40.374 3.3854-45.804 24.478z" fill="#f6c6b0"/><path d="m141.074 27.43c-2.6966-0.04917-4.0438 2.0499-4.1347 3.9774-0.083 1.7591 1.3249 3.9233 3.4144 3.9811 2.1308 0.05895 3.5947-2.0157 3.7266-3.7999 0.12685-1.7159-0.67192-4.116-3.0063-4.1585zm-16.774-0.99482c-2.6966-0.04917-4.0438 2.0499-4.1347 3.9774-0.083 1.7591 1.3249 3.9233 3.4144 3.9811 2.1308 0.05895 3.5947-2.0157 3.7266-3.7999 0.12685-1.7159-0.67192-4.116-3.0063-4.1585z" fill="#191919"/><path d="m124.806 13.2c-0.98027-0.08086-2.0738-0.04912-3.1758 0.11523-2.204 0.3287-4.4537 1.2168-5.6113 3.0938a0.5 0.5 0 0 0 0.16406 0.68945 0.5 0.5 0 0 0 0.6875-0.16406c0.92197-1.4949 2.8689-2.327 4.9062-2.6309s4.1517-0.05517 5.123 0.36719a0.5 0.5 0 0 0 0.6582-0.25781 0.5 0.5 0 0 0-0.25977-0.6582c-0.64562-0.28073-1.5119-0.47383-2.4922-0.55469z" color="#000000" fill="#1a1a1a" fill-opacity=".99889" stroke-linecap="round" style="-inkscape-stroke:none"/><path d="m66.929 34.749c-0.53622-0.03648-1.0839 0.02145-1.6367 0.19336a0.5 0.5 0 0 0-0.33008 0.625 0.5 0.5 0 0 0 0.62695 0.33008c1.7389-0.54076 3.4694 0.33474 4.8828 1.8828 0.40131 0.43956 0.67417 0.99838 1 1.5176-1.6123 0.28558-2.7129 1.3378-3.3008 2.5508-0.62502 1.2896-0.79301 2.6917-0.72656 3.6211a0.5 0.5 0 0 0 0.5332 0.46289 0.5 0.5 0 0 0 0.46289-0.5332c-0.0517-0.72307 0.10191-2.0278 0.62891-3.1152s1.3583-1.9526 2.7715-2.1016a0.5 0.5 0 0 0 0.17188-0.06445c0.54867 1.0726 0.95509 2.1741 1.0527 3.1602a0.5 0.5 0 0 0 0.54688 0.44727 0.5 0.5 0 0 0 0.44727-0.54688c-0.20171-2.0369-1.2811-4.3584-2.8477-6.0742-1.1749-1.2869-2.6745-2.246-4.2832-2.3555zm6.7207 17.145a0.5 0.5 0 0 0-0.35156 0.14648c-0.74285 0.74939-2.0344 1.3139-3.4219 1.4785-1.3874 0.16461-2.8558-0.06336-3.9688-0.76172a0.5 0.5 0 0 0-0.68945 0.1582 0.5 0.5 0 0 0 0.1582 0.68945c1.3604 0.85364 3.0443 1.0929 4.6172 0.90625 1.5729-0.18662 3.0496-0.79306 4.0137-1.7656a0.5 0.5 0 0 0-2e-3 -0.70703 0.5 0.5 0 0 0-0.35547-0.14453z" color="#000000" fill="#1a1a1a" fill-opacity=".99889" stroke-linecap="round" style="-inkscape-stroke:none"/><path d="m103.34 59.7883a1 1 0 0 0-0.89453 1.0957c0.58057 5.7445 4.3547 10.319 9.0527 13.145s10.362 3.985 15.07 2.7871a1 1 0 0 0 0.72266-1.2168 1 1 0 0 0-1.2168-0.72266c-4.0216 1.0232-9.2566 0.01619-13.545-2.5625-4.2884-2.5787-7.5899-6.6454-8.0938-11.631a1 1 0 0 0-1.0957-0.89453z" color="#000000" fill="#1a1a1a" fill-opacity=".99889" stroke-linecap="round" style="-inkscape-stroke:none"/><path d="m116.497 3.382c-5.4189 4.6307-11.957 5.1401-19.341 2.7605 7.2512 12.889-6.1833 26.176-19.386 26.262-2.0401-1.6918-3.9744-3.449-6.8844-4.6028 1.794-8.5788 8.6712-17.968 16.446-21.715 8.1572-3.9317 15.86-6.6755 29.165-2.7041z" fill="#835c29"/><path d="m44.2322 214.496 26.764 1.902 15.955 57.912c1.8914 6.561 0.46462 22.329-19.207 16.39-8.9471-3.5997-15.14-7.4348-22.381-11.18l11.719-23.247zm81.964-26.117 21.089 2.3603c15.38 4.3204 15.239 12.443 14.124 20.755-1.6969 9.3003-3.406 18.563-5.5104 26.61l-23.624-2.2719 3.4034-21.703-14.195-1.6747z" fill="#2a302f"/><path d="m133.945 291.656 4.5931-3.6016c24.675 10.967 39.309 6.5893 44.429 5.2974l-0.36032-1.2075-48.819-11.241zm-111.83-59.219-8.4684-4.4862-8.06 18.993 5.2075 2.6946c-3.7009 1.6852-18.136 21.144-2.9818 37.112 2.8215 2.973 11.134 7.2007 25.167 5.0077l-0.17792-1.8362-20.723-24.692 10.604-30.146" fill="#1a1a1a"/><path d="m18.763 230.716c-10.669 22.15-23.259 37.534-11.242 52.936 5.1891 5.4847 13.693 7.4624 25.13 6.338-0.14847-3.6807-0.46316-9.1635-10.887-15.677l2.9403-6.2004 20.37 14.279 12.088-26.087-2.6041-7.9916zm108.38 3.3266-8.1186 57.287 14.941 0.44519 1.2805-8.4525c15.349 10.945 34.255 10.712 47.287 9.0476-5.7385-13.332-15.88-17.751-27.319-23.578l5.4128-31.097z" fill="#e79c2e"/><path d="m13.642 273.286a0.5 0.5 0 0 0-0.48242 0.51562 0.5 0.5 0 0 0 0.51562 0.48242c3.0627-0.0983 5.4126-0.013 7.9785 0.18946a0.5 0.5 0 0 0 0.53711-0.45899 0.5 0.5 0 0 0-0.45898-0.53711c-2.5919-0.20447-4.992-0.29087-8.0898-0.1914z" color="#000000" fill="#1a1a1a" stroke-linecap="round" style="-inkscape-stroke:none"/><path d="m45.3701 243.396 7.1643 3.9059-12.174 31.901-8.7301-6.195m94.372-33.837 34.162 3.7623-1.8781 10.576-33.554-5.6681z" fill="#f6f1e4"/><path d="m56.8522 255.426 4.1337 14.547c0.25534 0.85606 1.9355 0.5965 1.5605-0.4984z" fill="#73787a"/><path d="m36.215 82.3-9.7425 24.842 11.001 11.634c-8.2 29.031-14.789 57.803-21.903 87.328 29.647 10.231 63.166 19.678 107.67 18.244 1.6925-16.818 4.2139-32 6.6288-43.495 11.525-1.7529 17.952-3.9443 25.198-6.0652l-0.70608-4.0863c1.7394 1.3845-1.0678-16.107-3.9036-21.003l-18.65 3.4869s2.0369-26.623 2.5603-28.978l1.2168-11.165 10.232-18.437c-7.9357 5.7867-24.833 21.9-31.382 29.159-8.9738-11.581-20.994-25.31-47.348-31.735 0 0-20.005-6.2568-30.871-9.7305z" fill="#2d7f92"/><path d="m162.138 168.516 14.473-51.557c0.60874-1.6773 2.6391-2.7159 4.0911-2.8437 9.0471-0.58133 23.606-1.5088 27.141-1.744 1.3862 0.16294 4.3486 1.506 4.7936 2.7425l-46.825 56.856c-2.4198-1.0312-2.9117-2.0468-3.6739-3.4543z" fill="#4d4d4d"/><path d="m181.358 117.162 30.567-2.645c1.6797 0.94084 1.426 2.7376 0.85584 4.6743l-13.546 47.276c-0.50558 2.2325-2.3223 4.0286-5.1798 4.6751l-26.361 2.4132-1.9481-1.487 2.7283-10.368c-16.885-3.9875 1.0343-26.286 6.6593-21.623z" fill="#1a1a1a"/><path d="m185.818 121.18c-3.0077-0.17913-4.6033 5.9099-1.5864 6.429 3.5346 0.60814 5.7282-6.1823 1.5864-6.429z" fill="#8b9598"/><path d="m150.329 150.096 4.3655 22.024c5.9147 0.38505 13.666-3.8231 16.153-9.0557 1.0261-2.342 5.4931-2.483 9.3833-1.564 9.4456 2.2312 9.7469-0.14373 10.051-1.3206 0.5199-2.0091-2.696-5.4159-11.158-7.131-3.5337-0.71622-7.6394 0.47401-7.5786-0.52063 0.0445-0.72802 4.1419-1.0486 8.5164-0.32663 6.4579 1.0659 7.6329 3.2409 10.298 3.5935 3.624 0.47947 4.1524-1.6472 4.3252-2.491 1.1662-5.6954-6.274-9.379-14.889-10.021-5.948-0.44292-8.8867 1.8854-9.0309 0.37062-0.11298-1.1865 7.6448-2.1046 11.276-1.3843 11.845 2.3494 14.215 4.1531 14.991-0.30869 0.71613-4.1209-8.0426-8.8691-17.743-8.3665-5.8642 0.30384-11.725 3.0598-17.232 7.4825-5.9522 4.7807-5.8709 6.3159-11.728 9.0194z" fill="#f6c6b0"/><path d="m60.2205 100.769c-1.9271-0.20886-3.7977-0.17954-5.5938 0.0996-7.1841 1.1166-13.09 6.2664-16.51 15.746a0.5 0.5 0 0 0 0.30078 0.63867 0.5 0.5 0 0 0 0.64062-0.30078c3.3354-9.2456 8.9135-14.037 15.723-15.096s14.942 1.6671 23.27 7.7871c12.092 8.8865 23.687 11.745 35.725 16.629a0.5 0.5 0 0 0-4e-3 0.01 0.5 0.5 0 0 0 0.48633 0.51367c5.8e-4 2e-5 -0.41649-0.24494-0.41602-0.24414s-0.0486-0.1106-0.0547-0.13672c-0.0121-0.0522-9e-3 -0.0654-0.01-0.0742-9.1e-4 -0.0177-1e-3 -5e-3 -2e-3 0.0117-1e-3 0.0339-6e-3 0.10216-0.0137 0.19336-0.0156 0.18239-0.0439 0.46005-0.082 0.8125-0.0762 0.7049-0.19272 1.7142-0.33789 2.9277-0.29034 2.427-0.69178 5.6648-1.0977 8.9023-0.76943 6.1381-1.4768 11.655-1.5566 12.277-6.5654-1.4249-12.217-3.8037-17.061-6.8008-12.648-7.8263-19.929-19.775-24.207-29.248a0.5 0.5 0 0 0-0.66016-0.25 0.5 0.5 0 0 0-0.25 0.66016c4.3233 9.5732 11.703 21.712 24.592 29.688 4.9887 3.087 10.825 5.5159 17.592 6.957a0.5 0.5 0 0 0 0.3418 0.22656 0.5 0.5 0 0 0 0.18164-0.14062c10.621 2.1673 23.528 1.8937 39.307-2.377a0.5 0.5 0 0 0 0.35156-0.61328 0.5 0.5 0 0 0-0.61328-0.35352c-6.476 1.7527-12.457 2.8342-17.986 3.3496l2.707-28.371a0.5 0.5 0 0 0-0.44922-0.54492 0.5 0.5 0 0 0-0.54688 0.44922l-2.7207 28.514c-7.3094 0.59321-13.799 0.1774-19.592-0.98047 0.0757-0.59041 0.79043-6.1579 1.5625-12.316 0.40599-3.2384 0.80687-6.4774 1.0977-8.9082 0.14539-1.2154 0.26279-2.227 0.33984-2.9395 0.0385-0.35621 0.0671-0.63649 0.084-0.83398 8e-3 -0.0987 0.015-0.17591 0.0176-0.24024 1e-3 -0.0322 2e-3 -0.0589 0-0.10156-8.9e-4 -0.0173-5e-3 -0.045-0.0117-0.082l18.629-7.6816a0.5 0.5 0 0 0 0.27149-0.6543 0.5 0.5 0 0 0-0.65234-0.27148l-18.816 7.7598c-12.134-4.9279-23.611-7.7467-35.553-16.523-6.3473-4.6648-12.641-7.4418-18.422-8.0684zm-18.945 31.732a0.5 0.5 0 0 0-0.27734 0.65039c7.1104 17.712 27.545 42.224 65.35 47.129l-5.8086 43.697a0.5 0.5 0 0 0 0.42969 0.56055 0.5 0.5 0 0 0 0.5625-0.42969l5.8105-43.703c6.884 0.82342 14.267 1.0766 22.316 0.44336a0.5 0.5 0 0 0 0.45898-0.53711 0.5 0.5 0 0 0-0.53711-0.45898c-52.589 4.1373-79.348-26.382-87.654-47.074a0.5 0.5 0 0 0-0.65039-0.27734zm2.0977 39.283-0.12695 0.47852-5.4727 20.465a0.5 0.5 0 0 0-0.05859 0.0352 0.5 0.5 0 0 0 0.0332 0.0566l-2.6758 10.01 43.773 10.98 7.457-30.99zm0.70898 1.2148 41.018 10.543-4.6914 19.502-41.549-10.506zm-5.4805 20.504 41.572 10.512-2.0625 8.5781-41.811-10.486z" color="#000000" fill="#1a1a1a" fill-opacity=".99889" stroke-linecap="round" style="-inkscape-stroke:none"/><path d="m104.7 140.511c-2.1955-0.0366-3.2923 1.5244-3.3663 2.9578-0.0676 1.3082 1.0787 2.9176 2.7798 2.9606 1.7348 0.0439 2.9267-1.499 3.0341-2.8258 0.10327-1.276-0.54704-3.0609-2.4476-3.0925zm-8.0218 58.109c-2.1955-0.0366-3.2923 1.5244-3.3663 2.9578-0.06759 1.3082 1.0787 2.9176 2.7798 2.9606 1.7348 0.0439 2.9267-1.499 3.0341-2.8258 0.10327-1.276-0.54704-3.0609-2.4476-3.0925zm-20.97-5.9072c-2.1955-0.0366-3.2923 1.5244-3.3663 2.9578-0.06759 1.3082 1.0787 2.9176 2.7798 2.9606 1.7348 0.0439 2.9267-1.499 3.0341-2.8258 0.10327-1.276-0.54704-3.0609-2.4476-3.0925zm-28.026-7.1168c-2.1955-0.0366-3.2923 1.5244-3.3663 2.9578-0.06759 1.3082 1.0787 2.9176 2.7798 2.9606 1.7348 0.0439 2.9267-1.499 3.0341-2.8258 0.10327-1.276-0.54705-3.0609-2.4476-3.0925z" fill="#191919"/><path d="m49.3372 133.943c3.2743-5.9453 8.4193-8.3167 15.047-7.8557 1.5559 5.8414 4.3502 11.718-1.448 17.348-6.307 0.26847-10.112-4.3049-13.599-9.4924z" fill="#8f7550"/><path d="m222.066 297.066c-0.3208-7.8785 0.014-12.169 0.1992-16.365 0.6536-14.85-3.8633-37.847-10.353-41.753l2.8332-0.66884c4.4067 7.2861 7.159 15.17 8.3897 23.921 1.2869-6.2438 2.7096-12.657 4.9044-18.722l2.0545 0.33205c-6.5169 18.485-6.2498 34.723-5.6906 53.308-0.7903 0.18797-1.5709 0.19596-2.3377-0.0525zm8.0469-66.585c6.0617-21.698 22.075-35.751 28.724-38.252 2.1237 13.424-15.708 39.888-28.724 38.252zm-46.78-19.13c13.926-0.15527 31.582 14.87 33.472 25.21-8.1294 3.1828-33.184-15.46-33.472-25.21zm40.847 70.942c6.0617-21.698 22.822-26.131 29.472-28.631 0.062 11.474-20.34 26.593-29.472 28.631zm-35.184-27.057c13.926-0.15527 31.582 14.87 33.472 25.21-7.9949 1.592-33.044-17.12-33.472-25.21z" fill="#413e25"/><path d="m229.256 220.4631-2.8681 22.988c3.2701 6.4505 5.5694 5.2158 8.8878 0.32058l-2.155-22.826z" fill="#5d3c2b"/><path d="m227.746 238.8631c1.9504 0.28757 3.888 0.28996 5.8188 0.14255l0.64183 0.91284c-2.2733 0.21484-4.5577 0.30499-6.8898-0.14205 0.24374-0.74985 0.55424-0.51813 0.42909-0.91334z" fill="#2b3230"/><path d="m231.046 220.4631c1.4673 20.733 3.2212 39.004 27.651 32.152zm-0.72741 0.41382c-0.6808 19.237-3.2212 39.004-27.651 32.152z" fill="#f9dcb3"/><path d="m257.766 234.5831c2e-3 -1e-3 10.853 13.812 4.6263 17.211-9.1341 4.9863-20.028-1.0759-23.052-5.3693-3.5299-20.051-0.58885-29.328 18.425-11.842zm-54.212 0.29083c-2e-3 -1e-3 -10.853 13.812-4.6263 17.211 9.1341 4.9863 20.028-1.0759 23.052-5.3693 1.0897-13.44 8.4256-35.08-18.425-11.842z" fill="#5d3c2b"/><path d="m240.876 212.7731-9.9136 7.6378s3.1592 14.411 5.871 21.236c0.72569 1.8265 2.7574 5.2116 2.7574 5.2116 9.2629-1.9706 12.969 11.623 19.086-10.8-5.41-8.0638-10.934-16.062-17.8-23.285zm0.83044 14.404c1.9514 0.0219 9.5508 7.6768 9.6356 9.6268 0.12506 2.8747-2.0519 2.5585-3.6096 2.1833-0.26316 2.7513-1.3523 2.7986-2.7404 2.5787-3.0909-0.48979-5.0726-12.921-3.5967-14.288 0.076-0.0703 0.18101-0.10275 0.3111-0.10129zm-21.019-14.658c-6.8665 7.2233-12.39 15.222-17.8 23.285 6.1163 22.423 9.8228 8.8298 19.086 10.8 0 0 2.0318-3.3851 2.7574-5.2116 2.7118-6.8254 5.871-21.236 5.871-21.236zm-0.78755 14.553c0.13009-1e-3 0.23511 0.031 0.31109 0.10129 1.4759 1.3662-0.5063 13.798-3.5972 14.288-1.3881 0.21996-2.4772 0.1726-2.7404-2.5787-1.5577 0.37513-3.7347 0.69135-3.6096-2.1833 0.0848-1.95 7.6848-9.6049 9.6361-9.6268z" fill="#b2734a"/><path d="m232.146 201.9431c3.8948-10.146 9.531-12.162 10.096-10.762 0.21832 1.922-4.8476 0.15937-8.8244 11.093m-4.9261-0.3933c-3.7086-9.3779-9.0032-12.045-9.9956-10.722-0.60064 1.8796 4.1882-0.46769 8.6601 11.352" fill="#2f1e16"/><path d="m241.206 206.9231c-1.8624-2.9081-6.9429-5.5791-11.816-5.2782-4.0847 0.25226-9.506 1.8731-10.62 10.95 0.367-0.32658 0.66442-0.31151 0.96259-0.30008 0.0931 1.7673-0.0681 3.5541 1.4461 5.242 0.22731-0.54929 0.52707-0.97647 0.9366-1.2187 0.22456 2.8666 2.2735 3.9575 3.4369 4.8426 0.11429-0.73051 0.51283-1.4193 1.005-2.0944 0.78331 1.4028 2.1712 2.3296 3.4972 3.3052 1.9457-0.81339 3.0056-2.096 4.1776-3.3192 0.39382 0.43455 0.844 1.055 0.91478 1.7465 2.29-0.81327 3.286-3.2378 3.118-5.154 0.54424 0.19073 0.95875 0.61424 1.318 1.1369 1.5068-2.3592 1.6652-4.8936 0.83715-7.3891 0.56283 0.36339 0.95254 1.1076 1.3584 1.8162-0.0731-1.659-0.52941-3.284-2.8042-4.5273 0.532-0.15152 1.2012-0.15282 2.2319 0.24162z" fill="#f9dcb3"/><path d="m232.876 207.7931c-2.8389 0.22725-1.8876 3.2593 0.10377 2.9298 1.7854-0.29543 1.8379-3.0852-0.10377-2.9298zm-8.4083-0.61632c-2.8356 0.23632-1.8854 3.3894 0.10365 3.0467 1.7833-0.30723 1.8358-3.2084-0.10365-3.0467z" fill="#29312e"/><path d="m104.516 1.443c-6.6735-0.0051-11.831 2.0635-17.184 4.6436-7.7749 3.7474-14.652 13.137-16.446 21.715 3e-3 0.0012 0.0058 0.0024 0.0088 0.0036-0.01068 0.04093-0.02251 0.08094-0.03307 0.12196-13.832-5.5287-16.093 18.27-5.4808 24.872a0.5 0.5 0 0 0-0.16226 0.11524 0.5 0.5 0 0 0 0.01654 0.49041l-7.8042 28.713-21.121-0.09457 1.2376 0.6966c-0.39113-0.12472-0.96123-0.30257-1.3322-0.42116l-9.7426 24.842 11.001 11.634c-8.2 29.031-14.789 57.803-21.904 87.328 9.1718 3.1651 18.716 6.2538 28.841 8.969l11.484 37.339-1.3374-4.1026-2.0273-0.99684 0.0036-9e-3 -7.1639-3.9057-0.14934 0.32143-25.019-12.3-6.5521-3.4711-8.0600003 18.993 3.8189 1.9761c-0.6405 1.2683-1.26 2.5222-1.8371 3.7491-5.1011 6.3819-11.85 21.338 0.24391 34.081 2.8215003 2.973 11.133 7.2004 25.167 5.0074l-0.17777-1.8361-0.16898-0.20103c-0.15677-3.6565-0.68562-8.9863-10.71-15.304a0.5 0.5 0 0 0 0.26562-0.40204 0.5 0.5 0 0 0-0.11524-0.35967l2.6283-5.5423 6.9417 4.8659-0.01602 0.0346 8.7302 6.195 0.03617-0.0951 4.6778 3.2789 1.1265-2.4309c6.884 3.605 12.947 7.2802 21.543 10.739 19.672 5.9392 21.099-9.8288 19.207-16.39l-14.658-53.205c8.9221 1.4524 18.309 2.5194 28.288 3.0339a0.5 0.5 0 0 0 0.38706 0.40256 0.5 0.5 0 0 0 0.52142-0.35812c6.9589 0.33459 14.192 0.41104 21.75 0.16743 0.39727-3.9475 0.8433-7.7946 1.3198-11.535l11.118 1.3116-3.2138 20.494-5.317-0.57981-0.7338 5.1795-0.41134-0.0455-1.2697 8.6698 0.44804 0.0755-6.1521 43.407 14.941 0.44545 0.0232-0.15503 4.5449-3.5641c24.675 10.967 39.309 6.5893 44.429 5.2974l-0.36019-1.2072-0.19016-0.0439c-5.7589-13.12-15.838-17.523-27.198-23.31l2.6706-15.344 0.39688 0.0672 1.8784-10.576-0.4377-0.0481 0.90434-5.1966-4.5062-0.49144c1.9999-7.8362 3.6497-16.749 5.2844-25.709 1.1145-8.3118 1.2555-16.434-14.124-20.755l-18.946-2.1208c0.50896-2.7266 1.0214-5.3422 1.5296-7.7613 11.525-1.7529 17.951-3.9444 25.198-6.0653l-0.7059-4.086c0.0229 0.0182 0.0417 0.0203 0.0631 0.032l0.2744 1.3834c2.664 0.17343 5.698-0.59081 8.4584-1.9549 0.52817 0.64163 1.2728 1.2159 2.619 1.7942l-0.0294 0.11214 1.9482 1.4872 26.361-2.4133c2.8575-0.64654 4.674-2.4427 5.1795-4.6752l3.6726-12.818c3.7589-0.64956 7.0048-2.0418 9.8444-3.8752 0.57819 0.91561 1.0993 2.0136 2.0469 2.9182 1.0624 1.0141 2.6461 1.6716 5.0875 1.3674l0.0196-4e-3 0.0217-4e-3s1.2377-0.26232 2.1973-1.4371c0.95955-1.1748 1.6235-3.249 0.77153-6.6487-0.27758-1.1077-0.66611-2.159-1.1488-3.145l2.4789 1.4723 1.0573-9.1483c0.29563 0.32813 0.59665 0.64299 0.9033 0.93844 1.1406 1.0989 2.3549 1.9521 3.6349 2.3068 0.59704 0.16547 1.2104 0.18375 1.8185 0.0899 0.12958 0.84399 0.41514 1.5673 0.88677 2.0758 0.57646 0.62154 1.3309 0.98006 2.0976 1.1565 0.49598 0.11416 0.97122 0.0601 1.4531 0.0465 0.37305 1.8691 1.1464 3.1462 2.2283 3.7543 1.154 0.64865 2.5267 0.56529 3.7894 0.0527 2.5255-1.0252 4.8221-3.7301 4.8865-6.6311 0.10111-4.5506-0.87185-7.4314-2.297-9.295-1.4252-1.8637-3.274-2.6698-4.7656-3.1621a0.5 0.5 0 0 0-0.0816 0.0413c-0.80893-1.5632-1.7966-3.0256-3.1719-4.1036-1.9452-1.5247-4.4763-2.3569-7.4766-2.0293-0.94227-0.86091-1.8667-1.5538-2.7172-1.7735-1.2624-0.34747-3.049-0.83171-4.916-0.51935l-0.014 4e-3 -0.0134 2e-3c-3.206 0.73393-6.8294 2.6964-10.03 5.5676l1.2821-4.4747c0.47395-1.6101 0.72546-3.1216-0.16691-4.1269-0.50639-1.2222-3.4047-2.5306-4.7718-2.6913-3.5354 0.23518-18.094 1.1622-27.142 1.7436-1.452 0.12786-3.482 1.1665-4.0907 2.8438l-3.3884 12.071c-12.035-2.265-24.367-5.7687-37.847-14.06l0.21032-1.9286 10.232-18.437c-0.3078 0.22445-0.65183 0.49129-0.98547 0.74569l0.86661-0.92604-9.371-0.59118 2.5073-29.619c9.2348 0.68087 18.743 2.0577 28.297 1.3043 25.036-1.9741 32.668-38.168-4.5532-47.887l-45.912-14.183c-0.0631-0.01841-0.12652-0.03254-0.18965-0.05064 7e-3 -0.0058 0.0139-0.01071 0.0207-0.01654-4.5738-1.3651-8.4855-1.9367-11.981-1.9394zm125.51 135.96c0.42846 0.0928 0.88358 0.1413 1.3674 0.14056-0.42537 0.0493-0.85717 3e-3 -1.3048-0.12144-0.0208-6e-3 -0.0417-0.013-0.0625-0.0191zm-96.999 7.2843c3.2353 1.4501 8.3933 3.3013 14.508 5.225-5.4364 1.342-10.516 2.2047-15.26 2.6469l0.75138-7.8719zm80.827 4.9837c0.0541 0.0862 0.10827 0.17339 0.16071 0.26252-0.0533-0.088-0.10692-0.17432-0.16071-0.26252z" fill-opacity=".5"/></svg>
