<svg width="268.23mm" height="301.1mm" version="1.1" viewBox="0 0 268.23 301.1" xml:space="preserve" xmlns="http://www.w3.org/2000/svg"><path d="m132.695 122.604c28.774 32.302 34.255 23.636 46.649 28.533l-4.0141 18.943c-14.926 14.144-32.99-11.639-49.308-17.818z" fill="#2d7f92"/><path d="m36.31 82.025 26.666 0.11916 70.569 11.515 12.153 0.76699-30.141 32.205z" fill="#135066"/><path d="m70.862 27.928c-13.839-5.5316-16.096 18.296-5.4652 24.883l-10.777 39.651 59.47 32.987 20.441-10.401 4.303-50.833c9.2348 0.68088 18.743 2.0579 28.297 1.3045 25.036-1.9741 32.668-38.168-4.5533-47.887l-45.912-14.183c-19.593-5.7172-40.374 3.3854-45.804 24.478z" fill="#f6c6b0"/><path d="m141.074 27.43c-2.6966-0.04917-4.0438 2.0499-4.1347 3.9774-0.083 1.7591 1.3249 3.9233 3.4144 3.9811 2.1308 0.05895 3.5947-2.0157 3.7266-3.7999 0.12685-1.7159-0.67192-4.116-3.0063-4.1585zm-16.774-0.99482c-2.6966-0.04917-4.0438 2.0499-4.1347 3.9774-0.083 1.7591 1.3249 3.9233 3.4144 3.9811 2.1308 0.05895 3.5947-2.0157 3.7266-3.7999 0.12685-1.7159-0.67192-4.116-3.0063-4.1585z" fill="#191919"/><path d="m124.806 13.2c-0.98027-0.08086-2.0738-0.04912-3.1758 0.11523-2.204 0.3287-4.4537 1.2168-5.6113 3.0938a0.5 0.5 0 0 0 0.16406 0.68945 0.5 0.5 0 0 0 0.6875-0.16406c0.92197-1.4949 2.8689-2.327 4.9062-2.6309s4.1517-0.05517 5.123 0.36719a0.5 0.5 0 0 0 0.6582-0.25781 0.5 0.5 0 0 0-0.25977-0.6582c-0.64562-0.28073-1.5119-0.47383-2.4922-0.55469z" color="#000000" fill="#1a1a1a" fill-opacity=".99889" stroke-linecap="round" style="-inkscape-stroke:none"/><path d="m66.929 34.749c-0.53622-0.03648-1.0839 0.02145-1.6367 0.19336a0.5 0.5 0 0 0-0.33008 0.625 0.5 0.5 0 0 0 0.62695 0.33008c1.7389-0.54076 3.4694 0.33474 4.8828 1.8828 0.40131 0.43956 0.67417 0.99838 1 1.5176-1.6123 0.28558-2.7129 1.3378-3.3008 2.5508-0.62502 1.2896-0.79301 2.6917-0.72656 3.6211a0.5 0.5 0 0 0 0.5332 0.46289 0.5 0.5 0 0 0 0.46289-0.5332c-0.0517-0.72307 0.10191-2.0278 0.62891-3.1152s1.3583-1.9526 2.7715-2.1016a0.5 0.5 0 0 0 0.17188-0.06445c0.54867 1.0726 0.95509 2.1741 1.0527 3.1602a0.5 0.5 0 0 0 0.54688 0.44727 0.5 0.5 0 0 0 0.44727-0.54688c-0.20171-2.0369-1.2811-4.3584-2.8477-6.0742-1.1749-1.2869-2.6745-2.246-4.2832-2.3555zm6.7207 17.145a0.5 0.5 0 0 0-0.35156 0.14648c-0.74285 0.74939-2.0344 1.3139-3.4219 1.4785-1.3874 0.16461-2.8558-0.06336-3.9688-0.76172a0.5 0.5 0 0 0-0.68945 0.1582 0.5 0.5 0 0 0 0.1582 0.68945c1.3604 0.85364 3.0443 1.0929 4.6172 0.90625 1.5729-0.18662 3.0496-0.79306 4.0137-1.7656a0.5 0.5 0 0 0-2e-3 -0.70703 0.5 0.5 0 0 0-0.35547-0.14453z" color="#000000" fill="#1a1a1a" fill-opacity=".99889" stroke-linecap="round" style="-inkscape-stroke:none"/><path d="m103.34 59.7883a1 1 0 0 0-0.89453 1.0957c0.58057 5.7445 4.3547 10.319 9.0527 13.145s10.362 3.985 15.07 2.7871a1 1 0 0 0 0.72266-1.2168 1 1 0 0 0-1.2168-0.72266c-4.0216 1.0232-9.2566 0.01619-13.545-2.5625-4.2884-2.5787-7.5899-6.6454-8.0938-11.631a1 1 0 0 0-1.0957-0.89453z" color="#000000" fill="#1a1a1a" fill-opacity=".99889" stroke-linecap="round" style="-inkscape-stroke:none"/><path d="m116.497 3.382c-5.4189 4.6307-11.957 5.1401-19.341 2.7605 7.2512 12.889-6.1833 26.176-19.386 26.262-2.0401-1.6918-3.9744-3.449-6.8844-4.6028 1.794-8.5788 8.6712-17.968 16.446-21.715 8.1572-3.9317 15.86-6.6755 29.165-2.7041z" fill="#835c29"/><path d="m44.2322 214.496 26.764 1.902 15.955 57.912c1.8914 6.561 0.46462 22.329-19.207 16.39-8.9471-3.5997-15.14-7.4348-22.381-11.18l11.719-23.247zm81.964-26.117 21.089 2.3603c15.38 4.3204 15.239 12.443 14.124 20.755-1.6969 9.3003-3.406 18.563-5.5104 26.61l-23.624-2.2719 3.4034-21.703-14.195-1.6747z" fill="#2a302f"/><path d="m133.945 291.656 4.5931-3.6016c24.675 10.967 39.309 6.5893 44.429 5.2974l-0.36032-1.2075-48.819-11.241zm-111.83-59.219-8.4684-4.4862-8.06 18.993 5.2075 2.6946c-3.7009 1.6852-18.136 21.144-2.9818 37.112 2.8215 2.973 11.134 7.2007 25.167 5.0077l-0.17792-1.8362-20.723-24.692 10.604-30.146" fill="#1a1a1a"/><path d="m18.763 230.716c-10.669 22.15-23.259 37.534-11.242 52.936 5.1891 5.4847 13.693 7.4624 25.13 6.338-0.14847-3.6807-0.46316-9.1635-10.887-15.677l2.9403-6.2004 20.37 14.279 12.088-26.087-2.6041-7.9916zm108.38 3.3266-8.1186 57.287 14.941 0.44519 1.2805-8.4525c15.349 10.945 34.255 10.712 47.287 9.0476-5.7385-13.332-15.88-17.751-27.319-23.578l5.4128-31.097z" fill="#e79c2e"/><path d="m13.642 273.286a0.5 0.5 0 0 0-0.48242 0.51562 0.5 0.5 0 0 0 0.51562 0.48242c3.0627-0.0983 5.4126-0.013 7.9785 0.18946a0.5 0.5 0 0 0 0.53711-0.45899 0.5 0.5 0 0 0-0.45898-0.53711c-2.5919-0.20447-4.992-0.29087-8.0898-0.1914z" color="#000000" fill="#1a1a1a" stroke-linecap="round" style="-inkscape-stroke:none"/><path d="m45.3701 243.396 7.1643 3.9059-12.174 31.901-8.7301-6.195m94.372-33.837 34.162 3.7623-1.8781 10.576-33.554-5.6681z" fill="#f6f1e4"/><path d="m56.8522 255.426 4.1337 14.547c0.25534 0.85606 1.9355 0.5965 1.5605-0.4984z" fill="#73787a"/><path d="m36.215 82.3-9.7425 24.842 11.001 11.634c-8.2 29.031-14.789 57.803-21.903 87.328 29.647 10.231 63.166 19.678 107.67 18.244 1.6925-16.818 4.2139-32 6.6288-43.495 11.525-1.7529 17.952-3.9443 25.198-6.0652l-0.70608-4.0863c1.7394 1.3845-1.0678-16.107-3.9036-21.003l-18.65 3.4869s2.0369-26.623 2.5603-28.978l1.2168-11.165 10.232-18.437c-7.9357 5.7867-24.833 21.9-31.382 29.159-8.9738-11.581-20.994-25.31-47.348-31.735 0 0-20.005-6.2568-30.871-9.7305z" fill="#2d7f92"/><path d="m162.138 168.516 14.473-51.557c0.60874-1.6773 2.6391-2.7159 4.0911-2.8437 9.0471-0.58133 23.606-1.5088 27.141-1.744 1.3862 0.16294 4.3486 1.506 4.7936 2.7425l-46.825 56.856c-2.4198-1.0312-2.9117-2.0468-3.6739-3.4543z" fill="#4d4d4d"/><path d="m181.358 117.162 30.567-2.645c1.6797 0.94084 1.426 2.7376 0.85584 4.6743l-13.546 47.276c-0.50558 2.2325-2.3223 4.0286-5.1798 4.6751l-26.361 2.4132-1.9481-1.487 2.7283-10.368c-16.885-3.9875 1.0343-26.286 6.6593-21.623z" fill="#1a1a1a"/><path d="m185.818 121.18c-3.0077-0.17913-4.6033 5.9099-1.5864 6.429 3.5346 0.60814 5.7282-6.1823 1.5864-6.429z" fill="#8b9598"/><path d="m150.329 150.096 4.3655 22.024c5.9147 0.38505 13.666-3.8231 16.153-9.0557 1.0261-2.342 5.4931-2.483 9.3833-1.564 9.4456 2.2312 9.7469-0.14373 10.051-1.3206 0.5199-2.0091-2.696-5.4159-11.158-7.131-3.5337-0.71622-7.6394 0.47401-7.5786-0.52063 0.0445-0.72802 4.1419-1.0486 8.5164-0.32663 6.4579 1.0659 7.6329 3.2409 10.298 3.5935 3.624 0.47947 4.1524-1.6472 4.3252-2.491 1.1662-5.6954-6.274-9.379-14.889-10.021-5.948-0.44292-8.8867 1.8854-9.0309 0.37062-0.11298-1.1865 7.6448-2.1046 11.276-1.3843 11.845 2.3494 14.215 4.1531 14.991-0.30869 0.71613-4.1209-8.0426-8.8691-17.743-8.3665-5.8642 0.30384-11.725 3.0598-17.232 7.4825-5.9522 4.7807-5.8709 6.3159-11.728 9.0194z" fill="#f6c6b0"/><path d="m60.2205 100.769c-1.9271-0.20886-3.7977-0.17954-5.5938 0.0996-7.1841 1.1166-13.09 6.2664-16.51 15.746a0.5 0.5 0 0 0 0.30078 0.63867 0.5 0.5 0 0 0 0.64062-0.30078c3.3354-9.2456 8.9135-14.037 15.723-15.096s14.942 1.6671 23.27 7.7871c12.092 8.8865 23.687 11.745 35.725 16.629a0.5 0.5 0 0 0-4e-3 0.01 0.5 0.5 0 0 0 0.48633 0.51367c5.8e-4 2e-5 -0.41649-0.24494-0.41602-0.24414s-0.0486-0.1106-0.0547-0.13672c-0.0121-0.0522-9e-3 -0.0654-0.01-0.0742-9.1e-4 -0.0177-1e-3 -5e-3 -2e-3 0.0117-1e-3 0.0339-6e-3 0.10216-0.0137 0.19336-0.0156 0.18239-0.0439 0.46005-0.082 0.8125-0.0762 0.7049-0.19272 1.7142-0.33789 2.9277-0.29034 2.427-0.69178 5.6648-1.0977 8.9023-0.76943 6.1381-1.4768 11.655-1.5566 12.277-6.5654-1.4249-12.217-3.8037-17.061-6.8008-12.648-7.8263-19.929-19.775-24.207-29.248a0.5 0.5 0 0 0-0.66016-0.25 0.5 0.5 0 0 0-0.25 0.66016c4.3233 9.5732 11.703 21.712 24.592 29.688 4.9887 3.087 10.825 5.5159 17.592 6.957a0.5 0.5 0 0 0 0.3418 0.22656 0.5 0.5 0 0 0 0.18164-0.14062c10.621 2.1673 23.528 1.8937 39.307-2.377a0.5 0.5 0 0 0 0.35156-0.61328 0.5 0.5 0 0 0-0.61328-0.35352c-6.476 1.7527-12.457 2.8342-17.986 3.3496l2.707-28.371a0.5 0.5 0 0 0-0.44922-0.54492 0.5 0.5 0 0 0-0.54688 0.44922l-2.7207 28.514c-7.3094 0.59321-13.799 0.1774-19.592-0.98047 0.0757-0.59041 0.79043-6.1579 1.5625-12.316 0.40599-3.2384 0.80687-6.4774 1.0977-8.9082 0.14539-1.2154 0.26279-2.227 0.33984-2.9395 0.0385-0.35621 0.0671-0.63649 0.084-0.83398 8e-3 -0.0987 0.015-0.17591 0.0176-0.24024 1e-3 -0.0322 2e-3 -0.0589 0-0.10156-8.9e-4 -0.0173-5e-3 -0.045-0.0117-0.082l18.629-7.6816a0.5 0.5 0 0 0 0.27149-0.6543 0.5 0.5 0 0 0-0.65234-0.27148l-18.816 7.7598c-12.134-4.9279-23.611-7.7467-35.553-16.523-6.3473-4.6648-12.641-7.4418-18.422-8.0684zm-18.945 31.732a0.5 0.5 0 0 0-0.27734 0.65039c7.1104 17.712 27.545 42.224 65.35 47.129l-5.8086 43.697a0.5 0.5 0 0 0 0.42969 0.56055 0.5 0.5 0 0 0 0.5625-0.42969l5.8105-43.703c6.884 0.82342 14.267 1.0766 22.316 0.44336a0.5 0.5 0 0 0 0.45898-0.53711 0.5 0.5 0 0 0-0.53711-0.45898c-52.589 4.1373-79.348-26.382-87.654-47.074a0.5 0.5 0 0 0-0.65039-0.27734zm2.0977 39.283-0.12695 0.47852-5.4727 20.465a0.5 0.5 0 0 0-0.05859 0.0352 0.5 0.5 0 0 0 0.0332 0.0566l-2.6758 10.01 43.773 10.98 7.457-30.99zm0.70898 1.2148 41.018 10.543-4.6914 19.502-41.549-10.506zm-5.4805 20.504 41.572 10.512-2.0625 8.5781-41.811-10.486z" color="#000000" fill="#1a1a1a" fill-opacity=".99889" stroke-linecap="round" style="-inkscape-stroke:none"/><path d="m104.7 140.511c-2.1955-0.0366-3.2923 1.5244-3.3663 2.9578-0.0676 1.3082 1.0787 2.9176 2.7798 2.9606 1.7348 0.0439 2.9267-1.499 3.0341-2.8258 0.10327-1.276-0.54704-3.0609-2.4476-3.0925zm-8.0218 58.109c-2.1955-0.0366-3.2923 1.5244-3.3663 2.9578-0.06759 1.3082 1.0787 2.9176 2.7798 2.9606 1.7348 0.0439 2.9267-1.499 3.0341-2.8258 0.10327-1.276-0.54704-3.0609-2.4476-3.0925zm-20.97-5.9072c-2.1955-0.0366-3.2923 1.5244-3.3663 2.9578-0.06759 1.3082 1.0787 2.9176 2.7798 2.9606 1.7348 0.0439 2.9267-1.499 3.0341-2.8258 0.10327-1.276-0.54704-3.0609-2.4476-3.0925zm-28.026-7.1168c-2.1955-0.0366-3.2923 1.5244-3.3663 2.9578-0.06759 1.3082 1.0787 2.9176 2.7798 2.9606 1.7348 0.0439 2.9267-1.499 3.0341-2.8258 0.10327-1.276-0.54705-3.0609-2.4476-3.0925z" fill="#191919"/><path d="m49.3372 133.943c3.2743-5.9453 8.4193-8.3167 15.047-7.8557 1.5559 5.8414 4.3502 11.718-1.448 17.348-6.307 0.26847-10.112-4.3049-13.599-9.4924z" fill="#8f7550"/><path d="m206.256 144.017c3.728-0.12824 6.5258-0.0139 7.3581 1.5884 0.57405 1.1051 0.17449 3.3529-1.0026 4.5924-1.1165 1.1757-2.9214 1.3738-5.6576 1.3553-5.0995-0.0346-7.3668-1.4088-7.1826-4.0653 0.15932-2.2982 2.4213-3.331 6.4848-3.4708zm2.4633-8.8228c7.5746-1.7874 10.42 6.2737 0.69785 7.536-6.9335 0.90028-8.2725-5.7487-0.69785-7.536zm-3.0798 17.582c3.7026 0.45354 4.0657-0.33704 4.898 1.2652 0.57405 1.1051 0.0862 2.8556-1.0909 4.095-1.1165 1.1757-1.6511 1.3325-4.3873 1.3139-5.0995-0.0346-6.9865-1.0276-6.8023-3.684 0.15932-2.2982 2.6626-3.5683 7.3825-2.9901z" fill="#f6c6b0"/><path d="m214.116 280.986c6.4674-21.836 15.574-25.303 22.223-27.804-0.92988 8.9252-13.482 24.76-22.223 27.804zm-21.541-26.601c13.483 2.5356 18.164 13.979 20.264 23.051-8.2339-0.95821-20.025-16.979-20.264-23.051z" fill="#8b802c"/><path d="m216.086 230.166c-2.8447 21.997-2.7199 44.663-0.41488 66.875 2.9743-3.8591 8.3286-7.6138 9.3975-6.4044 0.87787 1.0406-4.907 4.5557-6.1877 8.261l-7.2102 0.0822c-1.1766-0.84192-4.9316-0.83905-4.6038-1.8854 0.96028-2.071 5.1756-0.71736 6.9368 0.58719-2.5568-22.727-2.2396-46.163 0.0973-68.232 0.58082-1.7899 1.3046 8e-3 1.985 0.71627z" fill="#3d3813"/><path d="m210.026 215.766c-4.7983-14.862 26.175-15.363 12.972 0.18551 29.011-12.997 25.648 12.092 3.9172 8.498 18.481 6.9383-5.6845 26.795-12.147 4.6512-7.7431 21.012-33.926 5.2776-10.427-4.3604-27.224-1.213-8.6863-22.418 5.685-8.9743z" fill="#f5c82b"/><path d="m209.546 219.616c-0.962 9.0687 13.102 6.7864 13.36 0.38516 0.22572-5.5912-12.677-6.8266-13.36-0.38516z" fill="#2f2b0e"/><path d="m219.54876 205.60215c0.75515 0.91753 0.0346 1.53754 1.18563 2.53494-1.08462 0.82846-2.11117 1.74695-2.68544 3.36199-0.37092 0.30823-0.33716 0.96149 0.41128 1.14841 0.72851 0.18197 1.21195-0.4453 0.94079-0.89956 0.29018-1.41757 1.35523-2.32981 2.4308-3.23536l1.68041 0.46294c-0.36077 0.57816 0.46286 1.41117 0.46562 2.0657 9.3e-4 0.22336-0.24633 0.35308-0.5245 0.51377-0.0267-5e-3 -0.0536-0.0105-0.0816-0.015-1.10597-0.17242-1.58778 1.42053-0.3162 1.73489 0.71955 0.17797 1.2579-0.3602 1.25731-0.88775 0.44337-0.34255 1.09754-0.63505 1.10944-0.89539 0.0385-0.84226-0.7838-1.47227-0.62852-2.16366l7.05643 1.94253c-1.36455 0.88642-3.21538 0.89538-3.70273 2.22255-0.5669 0.37339-0.61304 1.34672 0.35772 1.58691 0.88427 0.21891 1.49204-0.63114 1.16755-1.22282 0.6051-1.00344 2.21584-1.42388 3.34791-2.26459l0.39113 0.10758c-0.30412 0.59587 0.60419 1.15447 0.40983 3.11793-0.92073 0.16646-1.2555 1.69014-0.0701 1.97978 1.00791 0.24626 1.70698-1.00396 1.11139-1.64576 0.47241-1.30481-0.0344-2.31948-0.0749-3.07334l4.97927 1.37079c0.74976 0.0812 1.46983-0.14821 2.06749-1.65582z" fill="#2a302f"/><path d="m217.90818 198.11783c6.72892-4.25732 14.33051-3.24045 19.16369-0.29655 5.59395 3.40725 7.03074 9.38877 5.4754 14.43562l-23.77406-6.47102z" fill="#d64b2e"/><path d="m214.94124 189.79544c-0.18813-0.045-0.41396-0.0439-0.67817 0.022-0.98143 0.24465-0.75803 1.8071 0.13679 1.98898 0.49282 1.82561 0.88832 3.67125 0.72969 5.63241-0.47012 0.0311-0.93455 0.10738-1.38621 0.2244-1.24312-1.51043-1.97677-3.05496-4.7542-4.46202 0.15858-0.6651-0.28534-1.44811-1.35058-1.18254-1.08791 0.27118-0.69511 2.16211 0.45131 1.9964 0.16504-0.0239 0.30796-0.0777 0.4293-0.15246 1.80999 1.24852 3.30317 2.49043 4.09998 4.18586-2.12593 0.91387-3.76303 2.73119-3.96161 4.80055-0.62974 6.56282 9.14161 6.88961 11.43275 2.72497 2.29956-4.1811 0.21501-6.75819-1.89461-7.63954-0.61245-0.25587-1.24407-0.40968-1.87745-0.47505-0.11387-1.94242-0.50144-3.90861-0.99296-5.93981 0.52679-0.51987 0.40598-1.53372-0.38354-1.72412z" fill="#2a302f"/><path d="m211.25313 201.27986c-0.23321-1.0579 1.35857-2.20547 2.81644-1.68749 1.06178 0.37723 1.32108 1.97796 0.62751 3.37426-0.40772 0.82078-1.45004 1.6897-2.24612 1.2356-1.15692-0.65995 0.0259-1.7921-0.11186-2.36858-0.17363-0.72841-0.97943-0.0705-1.08602-0.55383z" fill="#f6f1e4"/><path d="m238.09867 203.09963c-2.29837-1.49542-5.80719 2.06303-1.78893 4.07861 2.6934 1.35101 5.04952-1.95715 1.78893-4.07861zm-11.19354-3.60692c-4.98324-0.29584-4.38315 4.50351-1.85384 4.82707 4.36409 0.55832 5.1845-4.62932 1.85384-4.82707zm6.76502-2.46461c-1.65751-0.52189-1.97281 1.41328-0.76085 1.85287 1.58199 0.57384 2.05101-1.44659 0.76085-1.85287zm-10.85151-1.10722c-0.30124 0.083-0.76961 0.22616-0.90615 0.28495-0.37837 0.36501 0.18288 1.50632 1.12817 1.20495 1.07934-0.3441 0.29662-1.49863-0.22206-1.48995z" fill="#2a302f"/></svg>
