<svg xmlns="http://www.w3.org/2000/svg" width="24" height="24" viewBox="0 0 24 24" fill="none" aria-hidden="true"><path fill="currentColor" d="M12 15q1.25 0 2.125-.875A2.9 2.9 0 0 0 15 12q0-1.25-.875-2.125A2.9 2.9 0 0 0 12 9q-1.25 0-2.125.875A2.9 2.9 0 0 0 9 12q0 1.25.875 2.125A2.9 2.9 0 0 0 12 15m0 2q-2.075 0-3.537-1.463Q7 14.075 7 12q0-2.075 1.463-3.537Q9.926 7 12 7q2.075 0 3.537 1.463Q17 9.926 17 12q0 2.075-1.463 3.537Q14.075 17 12 17m-7-4H1v-2h4zm18 0h-4v-2h4zM11 5V1h2v4zm0 18v-4h2v4zM6.4 7.75 3.875 5.325 5.3 3.85l2.4 2.5zm12.3 12.4-2.425-2.525L17.6 16.25l2.525 2.425zM16.25 6.4l2.425-2.525L20.15 5.3l-2.5 2.4zM3.85 18.7l2.525-2.425L7.75 17.6l-2.425 2.525z"/></svg>
