<?xml version="1.0" encoding="UTF-8"?>
<svg id="a" class="aboutHeader" width="564.21002" height="70.199997" version="1.1" viewBox="0 0 564.21003 70.199997" xmlns="http://www.w3.org/2000/svg" xmlnsSvg="http://www.w3.org/2000/svg">
 <g fill="currentcolor">
  <path d="m102.46 70.19c-2.76 0-5.05-0.46-6.84-1.38-1.8-0.92-3.14-2.14-4.01-3.65-0.88-1.51-1.32-3.17-1.32-4.97 0-3.16 1.23-5.66 3.69-7.5s5.97-2.76 10.53-2.76h8.56v-0.59c0-2.54-0.69-4.45-2.07-5.73-1.38-1.27-3.17-1.91-5.36-1.91-1.93 0-3.61 0.47-5.04 1.42-1.43 0.94-2.29 2.34-2.6 4.18h-6.98c0.22-2.37 1.02-4.4 2.4-6.09s3.14-2.98 5.27-3.88 4.46-1.35 7.01-1.35c4.56 0 8.09 1.2 10.6 3.59 2.5 2.39 3.75 5.65 3.75 9.77v20.07h-6.05l-0.59-5.59c-0.92 1.8-2.26 3.31-4.01 4.54-1.76 1.23-4.06 1.84-6.91 1.84zm1.38-5.66c1.89 0 3.48-0.45 4.77-1.35s2.3-2.09 3.03-3.59c0.72-1.49 1.17-3.14 1.35-4.94h-7.77c-2.76 0-4.73 0.48-5.89 1.45s-1.74 2.17-1.74 3.62 0.56 2.67 1.68 3.52c1.12 0.86 2.64 1.28 4.57 1.28z"/>
  <path d="m127.73 69.4v-32.64h6.25l0.59 6.19c1.14-2.15 2.73-3.85 4.77-5.1s4.51-1.88 7.4-1.88v7.31h-1.91c-1.93 0-3.65 0.32-5.17 0.95-1.51 0.64-2.72 1.71-3.62 3.22s-1.35 3.61-1.35 6.29v15.66h-6.98z"/>
  <path d="m166.76 69.4c-3.2 0-5.75-0.78-7.63-2.34-1.89-1.56-2.83-4.33-2.83-8.33v-16.12h-5.59v-5.86h5.59l0.86-8.29h6.12v8.29h9.21v5.86h-9.21v16.12c0 1.8 0.38 3.04 1.15 3.72s2.09 1.02 3.98 1.02h3.75v5.92h-5.4z"/>
  <path d="m191.51 70.19c-4.12 0-7.53-1.01-10.2-3.03-2.68-2.02-4.21-4.7-4.61-8.03h7.04c0.35 1.49 1.18 2.78 2.5 3.85 1.32 1.08 3.05 1.61 5.2 1.61s3.64-0.44 4.61-1.32c0.96-0.88 1.45-1.89 1.45-3.03 0-1.67-0.67-2.8-2.01-3.39s-3.19-1.13-5.56-1.61c-1.84-0.39-3.68-0.92-5.5-1.58s-3.33-1.59-4.54-2.8-1.81-2.84-1.81-4.9c0-2.85 1.1-5.23 3.29-7.14s5.26-2.86 9.21-2.86c3.64 0 6.59 0.88 8.85 2.63s3.59 4.23 3.98 7.44h-6.71c-0.22-1.4-0.87-2.5-1.94-3.29-1.08-0.79-2.51-1.19-4.31-1.19s-3.12 0.36-4.08 1.09c-0.97 0.72-1.45 1.66-1.45 2.8s0.67 2.04 2.01 2.7 3.1 1.25 5.3 1.78c2.19 0.48 4.22 1.04 6.09 1.68 1.86 0.64 3.37 1.57 4.51 2.8s1.71 3.03 1.71 5.4c0.04 2.98-1.11 5.46-3.46 7.44-2.35 1.97-5.54 2.96-9.58 2.96z"/>
  <path d="m225.63 70.19c-3.16 0-5.95-0.75-8.36-2.24s-4.3-3.53-5.66-6.12-2.04-5.53-2.04-8.82 0.68-6.22 2.04-8.79 3.26-4.58 5.69-6.05c2.44-1.47 5.23-2.21 8.39-2.21 2.59 0 4.86 0.5 6.81 1.51s3.48 2.44 4.57 4.28v-19.75h6.98v47.39h-6.25l-0.72-5.07c-1.05 1.54-2.5 2.9-4.34 4.08s-4.21 1.78-7.11 1.78zm1.25-6.06c2.98 0 5.43-1.03 7.34-3.09s2.86-4.72 2.86-7.96-0.95-5.96-2.86-8-4.35-3.06-7.34-3.06-5.44 1.02-7.37 3.06-2.9 4.71-2.9 8c0 2.15 0.44 4.06 1.32 5.73s2.09 2.97 3.65 3.92c1.56 0.94 3.32 1.42 5.3 1.42z"/>
  <path d="m262.98 70.19c-2.76 0-5.05-0.46-6.84-1.38-1.8-0.92-3.14-2.14-4.01-3.65-0.88-1.51-1.32-3.17-1.32-4.97 0-3.16 1.23-5.66 3.69-7.5s5.97-2.76 10.53-2.76h8.56v-0.59c0-2.54-0.69-4.45-2.07-5.73s-3.17-1.91-5.36-1.91c-1.93 0-3.61 0.47-5.04 1.42-1.43 0.94-2.29 2.34-2.6 4.18h-6.98c0.22-2.37 1.02-4.4 2.4-6.09s3.14-2.98 5.26-3.88 4.46-1.35 7.01-1.35c4.56 0 8.09 1.2 10.6 3.59 2.5 2.39 3.75 5.65 3.75 9.77v20.07h-6.05l-0.59-5.59c-0.92 1.8-2.26 3.31-4.01 4.54s-4.06 1.84-6.91 1.84zm1.38-5.66c1.89 0 3.48-0.45 4.77-1.35s2.3-2.09 3.03-3.59c0.72-1.49 1.17-3.14 1.35-4.94h-7.77c-2.76 0-4.73 0.48-5.89 1.45s-1.74 2.17-1.74 3.62 0.56 2.67 1.68 3.52 2.64 1.28 4.57 1.28z"/>
  <path d="m301.04 69.4c-3.2 0-5.75-0.78-7.63-2.34-1.89-1.56-2.83-4.33-2.83-8.33v-16.12h-5.59v-5.86h5.59l0.86-8.29h6.12v8.29h9.21v5.86h-9.21v16.12c0 1.8 0.38 3.04 1.15 3.72s2.09 1.02 3.98 1.02h3.75v5.92h-5.4z"/>
  <path d="m323.79 70.19c-2.76 0-5.05-0.46-6.84-1.38-1.8-0.92-3.14-2.14-4.01-3.65-0.88-1.51-1.32-3.17-1.32-4.97 0-3.16 1.23-5.66 3.69-7.5s5.97-2.76 10.53-2.76h8.56v-0.59c0-2.54-0.69-4.45-2.07-5.73s-3.17-1.91-5.36-1.91c-1.93 0-3.61 0.47-5.04 1.42-1.43 0.94-2.29 2.34-2.6 4.18h-6.98c0.22-2.37 1.02-4.4 2.4-6.09s3.14-2.98 5.26-3.88 4.46-1.35 7.01-1.35c4.56 0 8.09 1.2 10.6 3.59 2.5 2.39 3.75 5.65 3.75 9.77v20.07h-6.05l-0.59-5.59c-0.92 1.8-2.26 3.31-4.01 4.54s-4.06 1.84-6.91 1.84zm1.38-5.66c1.89 0 3.48-0.45 4.77-1.35s2.3-2.09 3.03-3.59c0.72-1.49 1.17-3.14 1.35-4.94h-7.77c-2.76 0-4.73 0.48-5.89 1.45s-1.74 2.17-1.74 3.62 0.56 2.67 1.68 3.52 2.64 1.28 4.57 1.28z"/>
  <path d="m367.42 70.19c-2.54 0-4.79-0.5-6.75-1.51s-3.5-2.44-4.64-4.28l-0.72 5h-6.25v-47.39h6.98v19.81c1.05-1.54 2.5-2.9 4.34-4.08s4.21-1.78 7.11-1.78c3.16 0 5.94 0.75 8.36 2.24 2.41 1.49 4.31 3.53 5.69 6.12s2.07 5.53 2.07 8.82-0.69 6.22-2.07 8.79-3.28 4.58-5.69 6.05-5.22 2.21-8.42 2.21zm-1.18-6.06c2.98 0 5.44-1.02 7.37-3.06s2.9-4.71 2.9-8c0-2.15-0.44-4.06-1.32-5.73s-2.08-2.97-3.62-3.92c-1.54-0.94-3.31-1.42-5.33-1.42-2.98 0-5.43 1.03-7.34 3.09s-2.86 4.72-2.86 7.96 0.95 5.96 2.86 8 4.35 3.06 7.34 3.06z"/>
  <path d="m400.86 70.19c-2.76 0-5.05-0.46-6.84-1.38-1.8-0.92-3.14-2.14-4.01-3.65-0.88-1.51-1.32-3.17-1.32-4.97 0-3.16 1.23-5.66 3.69-7.5s5.97-2.76 10.53-2.76h8.56v-0.59c0-2.54-0.69-4.45-2.07-5.73s-3.17-1.91-5.36-1.91c-1.93 0-3.61 0.47-5.04 1.42-1.43 0.94-2.29 2.34-2.6 4.18h-6.98c0.22-2.37 1.02-4.4 2.4-6.09s3.14-2.98 5.26-3.88 4.46-1.35 7.01-1.35c4.56 0 8.09 1.2 10.6 3.59 2.5 2.39 3.75 5.65 3.75 9.77v20.07h-6.05l-0.59-5.59c-0.92 1.8-2.26 3.31-4.01 4.54s-4.06 1.84-6.91 1.84zm1.38-5.66c1.89 0 3.48-0.45 4.77-1.35s2.3-2.09 3.03-3.59c0.72-1.49 1.17-3.14 1.35-4.94h-7.77c-2.76 0-4.73 0.48-5.89 1.45s-1.74 2.17-1.74 3.62 0.56 2.67 1.68 3.52 2.64 1.28 4.57 1.28z"/>
  <path class="b" d="m426.13 69.4v-32.64h6.19l0.53 5.73c1.01-2.02 2.49-3.61 4.44-4.77s4.2-1.74 6.75-1.74c3.95 0 7.05 1.23 9.31 3.69s3.39 6.12 3.39 10.99v18.76h-6.91v-18.03c0-6.32-2.59-9.48-7.77-9.48-2.59 0-4.73 0.92-6.42 2.76s-2.53 4.48-2.53 7.9v16.85h-6.98z"/>
  <path d="m464.43 69.4v-47.39h6.98v28.23l12.5-13.49h8.36l-13.89 14.81 15.93 17.84h-8.82l-14.08-16.72v16.72z"/>
  <path d="m511.26 70.19c-3.2 0-6.04-0.71-8.52-2.14-2.48-1.42-4.42-3.41-5.82-5.96-1.41-2.54-2.11-5.51-2.11-8.88s0.69-6.43 2.07-9.02 3.31-4.61 5.79-6.05c2.48-1.45 5.36-2.17 8.65-2.17s5.99 0.71 8.36 2.14 4.21 3.32 5.53 5.69 1.97 4.98 1.97 7.83c0 0.44-0.01 0.91-0.03 1.42-0.02 0.5-0.06 1.06-0.1 1.68h-25.4c0.22 3.16 1.26 5.56 3.13 7.21 1.86 1.65 4.02 2.47 6.48 2.47 1.97 0 3.63-0.45 4.97-1.35s2.34-2.12 3-3.65h6.98c-0.88 3.07-2.62 5.64-5.23 7.7s-5.85 3.09-9.71 3.09zm0-28.5c-2.33 0-4.39 0.69-6.19 2.07s-2.9 3.46-3.29 6.22h18.43c-0.13-2.54-1.03-4.56-2.7-6.05s-3.75-2.24-6.25-2.24z"/>
  <path d="m533.6 69.4v-32.64h6.19l0.53 5.73c1.01-2.02 2.49-3.61 4.44-4.77s4.2-1.74 6.75-1.74c3.95 0 7.05 1.23 9.31 3.69s3.39 6.12 3.39 10.99v18.76h-6.91v-18.03c0-6.32-2.59-9.48-7.77-9.48-2.59 0-4.73 0.92-6.42 2.76s-2.53 4.48-2.53 7.9v16.85h-6.98z"/>
 </g>
 <g stroke-width=".142907">
  <path d="m34.479285 68.96c-19.01098 0-34.479285-15.466876-34.479285-34.480715s15.468305-34.479285 34.479285-34.479285c19.010981 0 34.480715 15.468305 34.480715 34.479285h-8.703065c0-14.212148-11.562644-25.7762201-25.776221-25.7762201s-25.7776491 11.5640721-25.7776491 25.7762201 11.5626431 25.77765 25.7762201 25.77765z" fill="currentcolor"/>
  <path d="m60.339821 60.339821v-15.035295h8.620179v23.655474h-23.655474v-8.620179z" fill="#e55440"/>
  <path d="m49.614615 34.480714a5.4119057 5.4119057 0 0 1-5.411905 5.411906 5.4119057 5.4119057 0 0 1-5.411906-5.411906 5.4119057 5.4119057 0 0 1 5.411906-5.411906 5.4119057 5.4119057 0 0 1 5.411905 5.411906z" fill="currentcolor"/>
 </g>
</svg>
